<?xml version="1.0" encoding="UTF-8" standalone="no"?>
<!DOCTYPE svg PUBLIC "-//W3C//DTD SVG 1.1//EN"
 "http://www.w3.org/Graphics/SVG/1.1/DTD/svg11.dtd">
<!-- Generated by graphviz version 2.43.0 (0)
 -->
<!-- Title: Design Pages: 1 -->
<svg width="779pt" height="476pt"
 viewBox="0.00 0.00 779.17 476.00" xmlns="http://www.w3.org/2000/svg" xmlns:xlink="http://www.w3.org/1999/xlink">
<g id="graph0" class="graph" transform="scale(1 1) rotate(0) translate(4 472)">
<title>Design</title>
<polygon fill="white" stroke="transparent" points="-4,4 -4,-472 775.17,-472 775.17,4 -4,4"/>
<!-- Board -->
<g id="node1" class="node">
<title>Board</title>
<ellipse fill="none" stroke="black" cx="303.25" cy="-306" rx="38.19" ry="18"/>
<text text-anchor="middle" x="303.25" y="-302.3" font-family="Times,serif" font-size="14.00">Board</text>
</g>
<!-- GameController -->
<g id="node2" class="node">
<title>GameController</title>
<ellipse fill="none" stroke="black" cx="534.25" cy="-162" rx="85.29" ry="18"/>
<text text-anchor="middle" x="534.25" y="-158.3" font-family="Times,serif" font-size="14.00">GameController</text>
</g>
<!-- Board&#45;&gt;GameController -->
<g id="edge1" class="edge">
<title>Board&#45;&gt;GameController</title>
<path fill="none" stroke="black" d="M325.81,-291.13C366.21,-266.29 451.14,-214.09 499.18,-184.55"/>
<polygon fill="black" stroke="black" points="501.02,-187.53 507.71,-179.31 497.35,-181.57 501.02,-187.53"/>
</g>
<!-- Tile -->
<g id="node3" class="node">
<title>Tile</title>
<ellipse fill="none" stroke="black" cx="263.25" cy="-234" rx="27.9" ry="18"/>
<text text-anchor="middle" x="263.25" y="-230.3" font-family="Times,serif" font-size="14.00">Tile</text>
</g>
<!-- Board&#45;&gt;Tile -->
<g id="edge2" class="edge">
<title>Board&#45;&gt;Tile</title>
<path fill="none" stroke="black" d="M293.77,-288.41C288.98,-280.04 283.08,-269.71 277.74,-260.37"/>
<polygon fill="black" stroke="black" points="280.66,-258.42 272.66,-251.47 274.58,-261.89 280.66,-258.42"/>
</g>
<!-- TileListener -->
<g id="node4" class="node">
<title>TileListener</title>
<ellipse fill="none" stroke="black" cx="195.25" cy="-162" rx="66.09" ry="18"/>
<text text-anchor="middle" x="195.25" y="-158.3" font-family="Times,serif" font-size="14.00">TileListener</text>
</g>
<!-- Board&#45;&gt;TileListener -->
<g id="edge3" class="edge">
<title>Board&#45;&gt;TileListener</title>
<path fill="none" stroke="black" d="M277.17,-292.55C260.52,-283.41 239.63,-269.55 226.25,-252 212.41,-233.86 204.45,-209.08 200.07,-190.28"/>
<polygon fill="black" stroke="black" points="203.44,-189.31 197.94,-180.26 196.6,-190.77 203.44,-189.31"/>
</g>
<!-- si211.P3Tools -->
<g id="node5" class="node">
<title>si211.P3Tools</title>
<ellipse fill="none" stroke="black" cx="355.25" cy="-162" rx="75.29" ry="18"/>
<text text-anchor="middle" x="355.25" y="-158.3" font-family="Times,serif" font-size="14.00">si211.P3Tools</text>
</g>
<!-- Board&#45;&gt;si211.P3Tools -->
<g id="edge4" class="edge">
<title>Board&#45;&gt;si211.P3Tools</title>
<path fill="none" stroke="black" d="M309.41,-288.15C318.32,-263.84 334.86,-218.66 345.45,-189.75"/>
<polygon fill="black" stroke="black" points="348.77,-190.86 348.92,-180.27 342.2,-188.45 348.77,-190.86"/>
</g>
<!-- si211.Pos -->
<g id="node6" class="node">
<title>si211.Pos</title>
<ellipse fill="none" stroke="black" cx="55.25" cy="-162" rx="55.49" ry="18"/>
<text text-anchor="middle" x="55.25" y="-158.3" font-family="Times,serif" font-size="14.00">si211.Pos</text>
</g>
<!-- Board&#45;&gt;si211.Pos -->
<g id="edge5" class="edge">
<title>Board&#45;&gt;si211.Pos</title>
<path fill="none" stroke="black" d="M278.25,-292.03C258.13,-281.5 229.19,-266.11 204.25,-252 164.08,-229.27 118.65,-201.88 88.62,-183.55"/>
<polygon fill="black" stroke="black" points="90.18,-180.39 79.82,-178.16 86.52,-186.37 90.18,-180.39"/>
</g>
<!-- BoardPanel -->
<g id="node7" class="node">
<title>BoardPanel</title>
<ellipse fill="none" stroke="black" cx="677.25" cy="-90" rx="63.89" ry="18"/>
<text text-anchor="middle" x="677.25" y="-86.3" font-family="Times,serif" font-size="14.00">BoardPanel</text>
</g>
<!-- GameController&#45;&gt;BoardPanel -->
<g id="edge12" class="edge">
<title>GameController&#45;&gt;BoardPanel</title>
<path fill="none" stroke="black" d="M566.34,-145.29C587.38,-134.99 615.04,-121.45 637.47,-110.47"/>
<polygon fill="black" stroke="black" points="639.29,-113.48 646.73,-105.94 636.21,-107.19 639.29,-113.48"/>
</g>
<!-- BoardControl -->
<g id="node8" class="node">
<title>BoardControl</title>
<ellipse fill="none" stroke="black" cx="600.25" cy="-18" rx="73.39" ry="18"/>
<text text-anchor="middle" x="600.25" y="-14.3" font-family="Times,serif" font-size="14.00">BoardControl</text>
</g>
<!-- GameController&#45;&gt;BoardControl -->
<g id="edge11" class="edge">
<title>GameController&#45;&gt;BoardControl</title>
<path fill="none" stroke="black" d="M477.95,-148.37C426.81,-136.33 358.17,-118.52 350.25,-108 340.62,-95.22 340.17,-84.43 350.25,-72 371.49,-45.78 455.75,-32.01 520.64,-25.15"/>
<polygon fill="black" stroke="black" points="521.29,-28.6 530.88,-24.1 520.58,-21.64 521.29,-28.6"/>
</g>
<!-- Timer -->
<g id="node10" class="node">
<title>Timer</title>
<ellipse fill="none" stroke="black" cx="397.25" cy="-90" rx="38.19" ry="18"/>
<text text-anchor="middle" x="397.25" y="-86.3" font-family="Times,serif" font-size="14.00">Timer</text>
</g>
<!-- GameController&#45;&gt;Timer -->
<g id="edge13" class="edge">
<title>GameController&#45;&gt;Timer</title>
<path fill="none" stroke="black" d="M503.16,-145.12C481.74,-134.17 453.29,-119.64 431.27,-108.39"/>
<polygon fill="black" stroke="black" points="432.76,-105.22 422.27,-103.78 429.58,-111.45 432.76,-105.22"/>
</g>
<!-- TimerThread -->
<g id="node11" class="node">
<title>TimerThread</title>
<ellipse fill="none" stroke="black" cx="524.25" cy="-90" rx="70.69" ry="18"/>
<text text-anchor="middle" x="524.25" y="-86.3" font-family="Times,serif" font-size="14.00">TimerThread</text>
</g>
<!-- GameController&#45;&gt;TimerThread -->
<g id="edge14" class="edge">
<title>GameController&#45;&gt;TimerThread</title>
<path fill="none" stroke="black" d="M531.77,-143.7C530.67,-135.98 529.35,-126.71 528.12,-118.11"/>
<polygon fill="black" stroke="black" points="531.57,-117.51 526.69,-108.1 524.64,-118.5 531.57,-117.51"/>
</g>
<!-- Tile&#45;&gt;GameController -->
<g id="edge16" class="edge">
<title>Tile&#45;&gt;GameController</title>
<path fill="none" stroke="black" d="M288.74,-226.41C330.53,-215.62 414.75,-193.87 472.8,-178.87"/>
<polygon fill="black" stroke="black" points="473.79,-182.23 482.59,-176.34 472.04,-175.45 473.79,-182.23"/>
</g>
<!-- Tile&#45;&gt;TileListener -->
<g id="edge17" class="edge">
<title>Tile&#45;&gt;TileListener</title>
<path fill="none" stroke="black" d="M245.04,-219.83C234.89,-210.72 222.49,-198.32 212.5,-187.42"/>
<polygon fill="black" stroke="black" points="214.99,-184.96 205.72,-179.82 209.77,-189.62 214.99,-184.96"/>
</g>
<!-- Tile&#45;&gt;si211.P3Tools -->
<g id="edge18" class="edge">
<title>Tile&#45;&gt;si211.P3Tools</title>
<path fill="none" stroke="black" d="M280.55,-219.83C293.29,-210.14 310.91,-196.73 325.84,-185.37"/>
<polygon fill="black" stroke="black" points="327.97,-188.15 333.81,-179.31 323.73,-182.58 327.97,-188.15"/>
</g>
<!-- Tile&#45;&gt;si211.Pos -->
<g id="edge19" class="edge">
<title>Tile&#45;&gt;si211.Pos</title>
<path fill="none" stroke="black" d="M238.98,-224.83C205.47,-213.56 144.38,-193 101.88,-178.69"/>
<polygon fill="black" stroke="black" points="102.9,-175.35 92.31,-175.47 100.67,-181.98 102.9,-175.35"/>
</g>
<!-- TileListener&#45;&gt;Tile -->
<g id="edge20" class="edge">
<title>TileListener&#45;&gt;Tile</title>
<path fill="none" stroke="black" d="M216.72,-179.15C226.38,-188.06 237.51,-199.29 246.54,-209.18"/>
<polygon fill="black" stroke="black" points="244.02,-211.61 253.27,-216.76 249.25,-206.96 244.02,-211.61"/>
</g>
<!-- BoardPanel&#45;&gt;BoardControl -->
<g id="edge6" class="edge">
<title>BoardPanel&#45;&gt;BoardControl</title>
<path fill="none" stroke="black" d="M659,-72.41C649.12,-63.43 636.76,-52.19 625.92,-42.34"/>
<polygon fill="black" stroke="black" points="628.12,-39.61 618.36,-35.47 623.41,-44.79 628.12,-39.61"/>
</g>
<!-- Game -->
<g id="node9" class="node">
<title>Game</title>
<ellipse fill="none" stroke="black" cx="628.25" cy="-378" rx="37.89" ry="18"/>
<text text-anchor="middle" x="628.25" y="-374.3" font-family="Times,serif" font-size="14.00">Game</text>
</g>
<!-- Game&#45;&gt;Board -->
<g id="edge7" class="edge">
<title>Game&#45;&gt;Board</title>
<path fill="none" stroke="black" d="M594.69,-369.77C535.73,-357.07 413.56,-330.76 347.67,-316.57"/>
<polygon fill="black" stroke="black" points="348.11,-313.08 337.6,-314.4 346.63,-319.93 348.11,-313.08"/>
</g>
<!-- Game&#45;&gt;GameController -->
<g id="edge10" class="edge">
<title>Game&#45;&gt;GameController</title>
<path fill="none" stroke="black" d="M620.87,-360.21C604.57,-323.11 565.4,-233.92 545.81,-189.32"/>
<polygon fill="black" stroke="black" points="548.94,-187.76 541.72,-180.01 542.53,-190.57 548.94,-187.76"/>
</g>
<!-- Game&#45;&gt;BoardPanel -->
<g id="edge9" class="edge">
<title>Game&#45;&gt;BoardPanel</title>
<path fill="none" stroke="black" d="M631.16,-359.97C639.35,-312.19 662.58,-176.62 672.57,-118.27"/>
<polygon fill="black" stroke="black" points="676.04,-118.75 674.28,-108.31 669.14,-117.57 676.04,-118.75"/>
</g>
<!-- Game&#45;&gt;BoardControl -->
<g id="edge8" class="edge">
<title>Game&#45;&gt;BoardControl</title>
<path fill="none" stroke="black" d="M654.77,-365.12C695.61,-344.81 769.25,-299.27 769.25,-235 769.25,-235 769.25,-235 769.25,-161 769.25,-120.55 776.94,-102.39 750.25,-72 730.85,-49.91 701.65,-37.03 674.16,-29.52"/>
<polygon fill="black" stroke="black" points="674.68,-26.04 664.13,-26.99 672.97,-32.83 674.68,-26.04"/>
</g>
<!-- TimerThread&#45;&gt;BoardControl -->
<g id="edge21" class="edge">
<title>TimerThread&#45;&gt;BoardControl</title>
<path fill="none" stroke="black" d="M542.26,-72.41C552,-63.43 564.21,-52.19 574.9,-42.34"/>
<polygon fill="black" stroke="black" points="577.38,-44.82 582.36,-35.47 572.64,-39.67 577.38,-44.82"/>
</g>
<!-- P3 -->
<g id="node12" class="node">
<title>P3</title>
<ellipse fill="none" stroke="black" cx="628.25" cy="-450" rx="27" ry="18"/>
<text text-anchor="middle" x="628.25" y="-446.3" font-family="Times,serif" font-size="14.00">P3</text>
</g>
<!-- P3&#45;&gt;Game -->
<g id="edge15" class="edge">
<title>P3&#45;&gt;Game</title>
<path fill="none" stroke="black" d="M628.25,-431.7C628.25,-423.98 628.25,-414.71 628.25,-406.11"/>
<polygon fill="black" stroke="black" points="631.75,-406.1 628.25,-396.1 624.75,-406.1 631.75,-406.1"/>
</g>
</g>
</svg>
