<?xml version="1.0" encoding="UTF-8" standalone="no"?>
<!DOCTYPE svg PUBLIC "-//W3C//DTD SVG 1.1//EN"
 "http://www.w3.org/Graphics/SVG/1.1/DTD/svg11.dtd">
<!-- Generated by graphviz version 2.43.0 (0)
 -->
<!-- Title: Design Pages: 1 -->
<svg width="684pt" height="548pt"
 viewBox="0.00 0.00 684.16 548.00" xmlns="http://www.w3.org/2000/svg" xmlns:xlink="http://www.w3.org/1999/xlink">
<g id="graph0" class="graph" transform="scale(1 1) rotate(0) translate(4 544)">
<title>Design</title>
<polygon fill="white" stroke="transparent" points="-4,4 -4,-544 680.16,-544 680.16,4 -4,4"/>
<!-- Board -->
<g id="node1" class="node">
<title>Board</title>
<ellipse fill="none" stroke="black" cx="336.05" cy="-450" rx="38.19" ry="18"/>
<text text-anchor="middle" x="336.05" y="-446.3" font-family="Times,serif" font-size="14.00">Board</text>
</g>
<!-- BoardPanel -->
<g id="node2" class="node">
<title>BoardPanel</title>
<ellipse fill="none" stroke="black" cx="242.05" cy="-234" rx="63.89" ry="18"/>
<text text-anchor="middle" x="242.05" y="-230.3" font-family="Times,serif" font-size="14.00">BoardPanel</text>
</g>
<!-- Board&#45;&gt;BoardPanel -->
<g id="edge1" class="edge">
<title>Board&#45;&gt;BoardPanel</title>
<path fill="none" stroke="black" d="M372.73,-444.74C474.25,-431.61 745.82,-386.5 659.05,-288 636.66,-262.58 427.44,-246.16 314.14,-239.05"/>
<polygon fill="black" stroke="black" points="314.35,-235.56 304.16,-238.43 313.92,-242.54 314.35,-235.56"/>
</g>
<!-- Tile -->
<g id="node3" class="node">
<title>Tile</title>
<ellipse fill="none" stroke="black" cx="336.05" cy="-378" rx="27.9" ry="18"/>
<text text-anchor="middle" x="336.05" y="-374.3" font-family="Times,serif" font-size="14.00">Tile</text>
</g>
<!-- Board&#45;&gt;Tile -->
<g id="edge2" class="edge">
<title>Board&#45;&gt;Tile</title>
<path fill="none" stroke="black" d="M336.05,-431.7C336.05,-423.98 336.05,-414.71 336.05,-406.11"/>
<polygon fill="black" stroke="black" points="339.55,-406.1 336.05,-396.1 332.55,-406.1 339.55,-406.1"/>
</g>
<!-- TileClickListener -->
<g id="node4" class="node">
<title>TileClickListener</title>
<ellipse fill="none" stroke="black" cx="242.05" cy="-306" rx="89.08" ry="18"/>
<text text-anchor="middle" x="242.05" y="-302.3" font-family="Times,serif" font-size="14.00">TileClickListener</text>
</g>
<!-- Board&#45;&gt;TileClickListener -->
<g id="edge3" class="edge">
<title>Board&#45;&gt;TileClickListener</title>
<path fill="none" stroke="black" d="M324.21,-432.41C316.86,-422.02 307.28,-408.31 299.05,-396 284.97,-374.96 269.52,-350.75 258.25,-332.9"/>
<polygon fill="black" stroke="black" points="261.06,-330.79 252.77,-324.19 255.14,-334.52 261.06,-330.79"/>
</g>
<!-- TileListener -->
<g id="node5" class="node">
<title>TileListener</title>
<ellipse fill="none" stroke="black" cx="415.05" cy="-306" rx="66.09" ry="18"/>
<text text-anchor="middle" x="415.05" y="-302.3" font-family="Times,serif" font-size="14.00">TileListener</text>
</g>
<!-- Board&#45;&gt;TileListener -->
<g id="edge4" class="edge">
<title>Board&#45;&gt;TileListener</title>
<path fill="none" stroke="black" d="M348.45,-432.76C356.02,-422.51 365.62,-408.82 373.05,-396 384.83,-375.67 396.07,-351.5 403.96,-333.48"/>
<polygon fill="black" stroke="black" points="407.23,-334.73 407.97,-324.16 400.8,-331.96 407.23,-334.73"/>
</g>
<!-- si211.P3Tools -->
<g id="node6" class="node">
<title>si211.P3Tools</title>
<ellipse fill="none" stroke="black" cx="575.05" cy="-306" rx="75.29" ry="18"/>
<text text-anchor="middle" x="575.05" y="-302.3" font-family="Times,serif" font-size="14.00">si211.P3Tools</text>
</g>
<!-- Board&#45;&gt;si211.P3Tools -->
<g id="edge5" class="edge">
<title>Board&#45;&gt;si211.P3Tools</title>
<path fill="none" stroke="black" d="M358.96,-435.38C400.76,-410.55 489.64,-357.75 539.4,-328.18"/>
<polygon fill="black" stroke="black" points="541.41,-331.06 548.22,-322.94 537.83,-325.04 541.41,-331.06"/>
</g>
<!-- si211.Pos -->
<g id="node7" class="node">
<title>si211.Pos</title>
<ellipse fill="none" stroke="black" cx="80.05" cy="-306" rx="55.49" ry="18"/>
<text text-anchor="middle" x="80.05" y="-302.3" font-family="Times,serif" font-size="14.00">si211.Pos</text>
</g>
<!-- Board&#45;&gt;si211.Pos -->
<g id="edge6" class="edge">
<title>Board&#45;&gt;si211.Pos</title>
<path fill="none" stroke="black" d="M311.96,-435.64C266.76,-410.57 168.99,-356.33 115.97,-326.93"/>
<polygon fill="black" stroke="black" points="117.37,-323.7 106.93,-321.91 113.98,-329.82 117.37,-323.7"/>
</g>
<!-- ButtonClickListener -->
<g id="node8" class="node">
<title>ButtonClickListener</title>
<ellipse fill="none" stroke="black" cx="242.05" cy="-162" rx="103.98" ry="18"/>
<text text-anchor="middle" x="242.05" y="-158.3" font-family="Times,serif" font-size="14.00">ButtonClickListener</text>
</g>
<!-- BoardPanel&#45;&gt;ButtonClickListener -->
<g id="edge7" class="edge">
<title>BoardPanel&#45;&gt;ButtonClickListener</title>
<path fill="none" stroke="black" d="M236.17,-216.05C235.35,-208.35 235.11,-199.03 235.44,-190.36"/>
<polygon fill="black" stroke="black" points="238.94,-190.49 236.13,-180.28 231.96,-190.01 238.94,-190.49"/>
</g>
<!-- Tile&#45;&gt;TileClickListener -->
<g id="edge12" class="edge">
<title>Tile&#45;&gt;TileClickListener</title>
<path fill="none" stroke="black" d="M315.36,-365.44C300.95,-355.87 281.89,-341.98 266.73,-330.14"/>
<polygon fill="black" stroke="black" points="268.77,-327.29 258.77,-323.82 264.42,-332.78 268.77,-327.29"/>
</g>
<!-- Tile&#45;&gt;TileListener -->
<g id="edge13" class="edge">
<title>Tile&#45;&gt;TileListener</title>
<path fill="none" stroke="black" d="M347.86,-361.46C357.34,-352.08 370.81,-339.96 383.26,-329.54"/>
<polygon fill="black" stroke="black" points="385.74,-332.03 391.24,-322.98 381.3,-326.62 385.74,-332.03"/>
</g>
<!-- Tile&#45;&gt;si211.P3Tools -->
<g id="edge14" class="edge">
<title>Tile&#45;&gt;si211.P3Tools</title>
<path fill="none" stroke="black" d="M361.17,-369.64C398.48,-358.72 469.46,-337.92 519.4,-323.3"/>
<polygon fill="black" stroke="black" points="520.47,-326.63 529.08,-320.46 518.5,-319.91 520.47,-326.63"/>
</g>
<!-- Tile&#45;&gt;si211.Pos -->
<g id="edge15" class="edge">
<title>Tile&#45;&gt;si211.Pos</title>
<path fill="none" stroke="black" d="M310.56,-370.03C268.78,-358.61 184.91,-335.67 130.69,-320.85"/>
<polygon fill="black" stroke="black" points="131.49,-317.44 120.93,-318.18 129.65,-324.19 131.49,-317.44"/>
</g>
<!-- TileClickListener&#45;&gt;BoardPanel -->
<g id="edge16" class="edge">
<title>TileClickListener&#45;&gt;BoardPanel</title>
<path fill="none" stroke="black" d="M242.05,-287.7C242.05,-279.98 242.05,-270.71 242.05,-262.11"/>
<polygon fill="black" stroke="black" points="245.55,-262.1 242.05,-252.1 238.55,-262.1 245.55,-262.1"/>
</g>
<!-- TileClickListener&#45;&gt;Tile -->
<g id="edge17" class="edge">
<title>TileClickListener&#45;&gt;Tile</title>
<path fill="none" stroke="black" d="M269.73,-323.29C283.74,-332.92 300.43,-345.24 313.64,-355.64"/>
<polygon fill="black" stroke="black" points="311.76,-358.62 321.75,-362.15 316.14,-353.16 311.76,-358.62"/>
</g>
<!-- TileListener&#45;&gt;Tile -->
<g id="edge18" class="edge">
<title>TileListener&#45;&gt;Tile</title>
<path fill="none" stroke="black" d="M401.98,-323.77C391.29,-334.24 376.13,-347.72 362.96,-358.5"/>
<polygon fill="black" stroke="black" points="360.7,-355.83 355.07,-364.81 365.07,-361.29 360.7,-355.83"/>
</g>
<!-- ButtonClickListener&#45;&gt;BoardPanel -->
<g id="edge8" class="edge">
<title>ButtonClickListener&#45;&gt;BoardPanel</title>
<path fill="none" stroke="black" d="M247.96,-180.28C248.76,-188.03 248.99,-197.36 248.64,-206.01"/>
<polygon fill="black" stroke="black" points="245.14,-205.83 247.93,-216.05 252.12,-206.33 245.14,-205.83"/>
</g>
<!-- TimerThread -->
<g id="node9" class="node">
<title>TimerThread</title>
<ellipse fill="none" stroke="black" cx="242.05" cy="-90" rx="70.69" ry="18"/>
<text text-anchor="middle" x="242.05" y="-86.3" font-family="Times,serif" font-size="14.00">TimerThread</text>
</g>
<!-- ButtonClickListener&#45;&gt;TimerThread -->
<g id="edge9" class="edge">
<title>ButtonClickListener&#45;&gt;TimerThread</title>
<path fill="none" stroke="black" d="M236.13,-143.7C235.34,-135.98 235.11,-126.71 235.45,-118.11"/>
<polygon fill="black" stroke="black" points="238.95,-118.32 236.15,-108.1 231.96,-117.84 238.95,-118.32"/>
</g>
<!-- TimerThread&#45;&gt;BoardPanel -->
<g id="edge19" class="edge">
<title>TimerThread&#45;&gt;BoardPanel</title>
<path fill="none" stroke="black" d="M294.37,-102.18C317.1,-109.91 341.57,-122.79 355.05,-144 363.63,-157.5 363.63,-166.5 355.05,-180 342.9,-199.11 321.84,-211.45 301.17,-219.36"/>
<polygon fill="black" stroke="black" points="300,-216.07 291.74,-222.7 302.33,-222.67 300,-216.07"/>
</g>
<!-- TimerThread&#45;&gt;ButtonClickListener -->
<g id="edge20" class="edge">
<title>TimerThread&#45;&gt;ButtonClickListener</title>
<path fill="none" stroke="black" d="M247.94,-108.1C248.75,-115.79 248.98,-125.05 248.65,-133.67"/>
<polygon fill="black" stroke="black" points="245.16,-133.48 247.96,-143.7 252.14,-133.96 245.16,-133.48"/>
</g>
<!-- Timer -->
<g id="node11" class="node">
<title>Timer</title>
<ellipse fill="none" stroke="black" cx="242.05" cy="-18" rx="38.19" ry="18"/>
<text text-anchor="middle" x="242.05" y="-14.3" font-family="Times,serif" font-size="14.00">Timer</text>
</g>
<!-- TimerThread&#45;&gt;Timer -->
<g id="edge21" class="edge">
<title>TimerThread&#45;&gt;Timer</title>
<path fill="none" stroke="black" d="M242.05,-71.7C242.05,-63.98 242.05,-54.71 242.05,-46.11"/>
<polygon fill="black" stroke="black" points="245.55,-46.1 242.05,-36.1 238.55,-46.1 245.55,-46.1"/>
</g>
<!-- P3 -->
<g id="node10" class="node">
<title>P3</title>
<ellipse fill="none" stroke="black" cx="147.05" cy="-522" rx="27" ry="18"/>
<text text-anchor="middle" x="147.05" y="-518.3" font-family="Times,serif" font-size="14.00">P3</text>
</g>
<!-- P3&#45;&gt;Board -->
<g id="edge10" class="edge">
<title>P3&#45;&gt;Board</title>
<path fill="none" stroke="black" d="M170.22,-512.42C201.8,-500.72 258.79,-479.61 297.02,-465.45"/>
<polygon fill="black" stroke="black" points="298.63,-468.59 306.79,-461.84 296.19,-462.03 298.63,-468.59"/>
</g>
<!-- P3&#45;&gt;BoardPanel -->
<g id="edge11" class="edge">
<title>P3&#45;&gt;BoardPanel</title>
<path fill="none" stroke="black" d="M129.33,-508.01C81.24,-471.21 -44.2,-364.01 16.05,-288 35.36,-263.63 113.52,-249.38 172.55,-241.91"/>
<polygon fill="black" stroke="black" points="173.09,-245.37 182.59,-240.68 172.24,-238.42 173.09,-245.37"/>
</g>
</g>
</svg>
