<?xml version="1.0" encoding="UTF-8" standalone="no"?>
<!DOCTYPE svg PUBLIC "-//W3C//DTD SVG 1.1//EN"
 "http://www.w3.org/Graphics/SVG/1.1/DTD/svg11.dtd">
<!-- Generated by graphviz version 2.43.0 (0)
 -->
<!-- Title: Design Pages: 1 -->
<svg width="734pt" height="260pt"
 viewBox="0.00 0.00 733.74 260.00" xmlns="http://www.w3.org/2000/svg" xmlns:xlink="http://www.w3.org/1999/xlink">
<g id="graph0" class="graph" transform="scale(1 1) rotate(0) translate(4 256)">
<title>Design</title>
<polygon fill="white" stroke="transparent" points="-4,4 -4,-256 729.74,-256 729.74,4 -4,4"/>
<!-- Board -->
<g id="node1" class="node">
<title>Board</title>
<ellipse fill="none" stroke="black" cx="378.35" cy="-162" rx="38.19" ry="18"/>
<text text-anchor="middle" x="378.35" y="-158.3" font-family="Times,serif" font-size="14.00">Board</text>
</g>
<!-- BoardControl -->
<g id="node2" class="node">
<title>BoardControl</title>
<ellipse fill="none" stroke="black" cx="203.35" cy="-18" rx="73.39" ry="18"/>
<text text-anchor="middle" x="203.35" y="-14.3" font-family="Times,serif" font-size="14.00">BoardControl</text>
</g>
<!-- Board&#45;&gt;BoardControl -->
<g id="edge1" class="edge">
<title>Board&#45;&gt;BoardControl</title>
<path fill="none" stroke="black" d="M370.16,-144.26C359.9,-124.73 340.68,-92.51 316.35,-72 298.54,-56.99 275.77,-45.24 255.34,-36.66"/>
<polygon fill="black" stroke="black" points="256.42,-33.32 245.84,-32.82 253.8,-39.81 256.42,-33.32"/>
</g>
<!-- Tile -->
<g id="node3" class="node">
<title>Tile</title>
<ellipse fill="none" stroke="black" cx="434.35" cy="-90" rx="27.9" ry="18"/>
<text text-anchor="middle" x="434.35" y="-86.3" font-family="Times,serif" font-size="14.00">Tile</text>
</g>
<!-- Board&#45;&gt;Tile -->
<g id="edge2" class="edge">
<title>Board&#45;&gt;Tile</title>
<path fill="none" stroke="black" d="M391.33,-144.76C398.5,-135.8 407.54,-124.51 415.47,-114.59"/>
<polygon fill="black" stroke="black" points="418.3,-116.66 421.81,-106.67 412.83,-112.29 418.3,-116.66"/>
</g>
<!-- TileListener -->
<g id="node4" class="node">
<title>TileListener</title>
<ellipse fill="none" stroke="black" cx="490.35" cy="-18" rx="66.09" ry="18"/>
<text text-anchor="middle" x="490.35" y="-14.3" font-family="Times,serif" font-size="14.00">TileListener</text>
</g>
<!-- Board&#45;&gt;TileListener -->
<g id="edge3" class="edge">
<title>Board&#45;&gt;TileListener</title>
<path fill="none" stroke="black" d="M409.31,-150.97C429.99,-142.68 456.1,-128.85 471.35,-108 484.43,-90.11 488.88,-65.11 490.23,-46.16"/>
<polygon fill="black" stroke="black" points="493.73,-46.22 490.7,-36.07 486.74,-45.9 493.73,-46.22"/>
</g>
<!-- si211.P3Tools -->
<g id="node5" class="node">
<title>si211.P3Tools</title>
<ellipse fill="none" stroke="black" cx="650.35" cy="-18" rx="75.29" ry="18"/>
<text text-anchor="middle" x="650.35" y="-14.3" font-family="Times,serif" font-size="14.00">si211.P3Tools</text>
</g>
<!-- Board&#45;&gt;si211.P3Tools -->
<g id="edge4" class="edge">
<title>Board&#45;&gt;si211.P3Tools</title>
<path fill="none" stroke="black" d="M405.35,-149.16C428.63,-138.78 463.02,-123.05 492.35,-108 535.05,-86.09 582.92,-58.71 614.67,-40.15"/>
<polygon fill="black" stroke="black" points="616.72,-43 623.58,-34.92 613.18,-36.96 616.72,-43"/>
</g>
<!-- si211.Pos -->
<g id="node6" class="node">
<title>si211.Pos</title>
<ellipse fill="none" stroke="black" cx="350.35" cy="-18" rx="55.49" ry="18"/>
<text text-anchor="middle" x="350.35" y="-14.3" font-family="Times,serif" font-size="14.00">si211.Pos</text>
</g>
<!-- Board&#45;&gt;si211.Pos -->
<g id="edge5" class="edge">
<title>Board&#45;&gt;si211.Pos</title>
<path fill="none" stroke="black" d="M374.97,-143.87C370.18,-119.56 361.35,-74.82 355.67,-46.01"/>
<polygon fill="black" stroke="black" points="359.1,-45.32 353.74,-36.19 352.24,-46.68 359.1,-45.32"/>
</g>
<!-- Tile&#45;&gt;BoardControl -->
<g id="edge14" class="edge">
<title>Tile&#45;&gt;BoardControl</title>
<path fill="none" stroke="black" d="M409.63,-81.51C373.47,-70.55 305.27,-49.89 257.21,-35.32"/>
<polygon fill="black" stroke="black" points="258.16,-31.95 247.58,-32.4 256.13,-38.65 258.16,-31.95"/>
</g>
<!-- Tile&#45;&gt;TileListener -->
<g id="edge15" class="edge">
<title>Tile&#45;&gt;TileListener</title>
<path fill="none" stroke="black" d="M441.78,-72.41C447.8,-63.69 456.27,-52.85 464.52,-43.21"/>
<polygon fill="black" stroke="black" points="467.36,-45.29 471.34,-35.47 462.11,-40.66 467.36,-45.29"/>
</g>
<!-- Tile&#45;&gt;si211.P3Tools -->
<g id="edge16" class="edge">
<title>Tile&#45;&gt;si211.P3Tools</title>
<path fill="none" stroke="black" d="M458.7,-81.11C492.25,-70.24 553.52,-50.38 597.77,-36.04"/>
<polygon fill="black" stroke="black" points="599.06,-39.3 607.5,-32.89 596.91,-32.64 599.06,-39.3"/>
</g>
<!-- Tile&#45;&gt;si211.Pos -->
<g id="edge17" class="edge">
<title>Tile&#45;&gt;si211.Pos</title>
<path fill="none" stroke="black" d="M417.75,-75.17C406.27,-65.6 390.73,-52.65 377.46,-41.6"/>
<polygon fill="black" stroke="black" points="379.48,-38.72 369.55,-35.01 375,-44.1 379.48,-38.72"/>
</g>
<!-- TileListener&#45;&gt;Tile -->
<g id="edge18" class="edge">
<title>TileListener&#45;&gt;Tile</title>
<path fill="none" stroke="black" d="M482.62,-36.02C476.03,-45.5 466.64,-57.4 457.81,-67.52"/>
<polygon fill="black" stroke="black" points="455.01,-65.4 450.91,-75.17 460.21,-70.09 455.01,-65.4"/>
</g>
<!-- BoardPanel -->
<g id="node7" class="node">
<title>BoardPanel</title>
<ellipse fill="none" stroke="black" cx="203.35" cy="-162" rx="63.89" ry="18"/>
<text text-anchor="middle" x="203.35" y="-158.3" font-family="Times,serif" font-size="14.00">BoardPanel</text>
</g>
<!-- BoardPanel&#45;&gt;BoardControl -->
<g id="edge6" class="edge">
<title>BoardPanel&#45;&gt;BoardControl</title>
<path fill="none" stroke="black" d="M167.61,-146.93C150.97,-138.36 132.81,-125.61 123.35,-108 115.78,-93.9 115.78,-86.1 123.35,-72 130.91,-57.91 144.05,-46.94 157.52,-38.72"/>
<polygon fill="black" stroke="black" points="159.38,-41.69 166.36,-33.72 155.93,-35.6 159.38,-41.69"/>
</g>
<!-- Timer -->
<g id="node8" class="node">
<title>Timer</title>
<ellipse fill="none" stroke="black" cx="38.35" cy="-90" rx="38.19" ry="18"/>
<text text-anchor="middle" x="38.35" y="-86.3" font-family="Times,serif" font-size="14.00">Timer</text>
</g>
<!-- BoardPanel&#45;&gt;Timer -->
<g id="edge7" class="edge">
<title>BoardPanel&#45;&gt;Timer</title>
<path fill="none" stroke="black" d="M169.56,-146.67C142.15,-135.04 103.56,-118.67 75.33,-106.69"/>
<polygon fill="black" stroke="black" points="76.38,-103.33 65.81,-102.65 73.65,-109.78 76.38,-103.33"/>
</g>
<!-- TimerThread -->
<g id="node9" class="node">
<title>TimerThread</title>
<ellipse fill="none" stroke="black" cx="203.35" cy="-90" rx="70.69" ry="18"/>
<text text-anchor="middle" x="203.35" y="-86.3" font-family="Times,serif" font-size="14.00">TimerThread</text>
</g>
<!-- BoardPanel&#45;&gt;TimerThread -->
<g id="edge8" class="edge">
<title>BoardPanel&#45;&gt;TimerThread</title>
<path fill="none" stroke="black" d="M203.35,-143.7C203.35,-135.98 203.35,-126.71 203.35,-118.11"/>
<polygon fill="black" stroke="black" points="206.85,-118.1 203.35,-108.1 199.85,-118.1 206.85,-118.1"/>
</g>
<!-- TimerThread&#45;&gt;BoardControl -->
<g id="edge19" class="edge">
<title>TimerThread&#45;&gt;BoardControl</title>
<path fill="none" stroke="black" d="M203.35,-71.7C203.35,-63.98 203.35,-54.71 203.35,-46.11"/>
<polygon fill="black" stroke="black" points="206.85,-46.1 203.35,-36.1 199.85,-46.1 206.85,-46.1"/>
</g>
<!-- Game -->
<g id="node10" class="node">
<title>Game</title>
<ellipse fill="none" stroke="black" cx="211.35" cy="-234" rx="37.89" ry="18"/>
<text text-anchor="middle" x="211.35" y="-230.3" font-family="Times,serif" font-size="14.00">Game</text>
</g>
<!-- Game&#45;&gt;Board -->
<g id="edge9" class="edge">
<title>Game&#45;&gt;Board</title>
<path fill="none" stroke="black" d="M238.92,-221.44C266.84,-209.74 310.2,-191.56 341.15,-178.59"/>
<polygon fill="black" stroke="black" points="342.86,-181.67 350.73,-174.58 340.15,-175.21 342.86,-181.67"/>
</g>
<!-- Game&#45;&gt;BoardPanel -->
<g id="edge10" class="edge">
<title>Game&#45;&gt;BoardPanel</title>
<path fill="none" stroke="black" d="M209.37,-215.7C208.49,-207.98 207.43,-198.71 206.45,-190.11"/>
<polygon fill="black" stroke="black" points="209.91,-189.64 205.3,-180.1 202.96,-190.44 209.91,-189.64"/>
</g>
<!-- P3 -->
<g id="node11" class="node">
<title>P3</title>
<ellipse fill="none" stroke="black" cx="302.35" cy="-234" rx="27" ry="18"/>
<text text-anchor="middle" x="302.35" y="-230.3" font-family="Times,serif" font-size="14.00">P3</text>
</g>
<!-- P3&#45;&gt;Board -->
<g id="edge11" class="edge">
<title>P3&#45;&gt;Board</title>
<path fill="none" stroke="black" d="M317.73,-218.83C328.19,-209.2 342.24,-196.25 354.19,-185.25"/>
<polygon fill="black" stroke="black" points="356.69,-187.71 361.67,-178.36 351.94,-182.56 356.69,-187.71"/>
</g>
<!-- P3&#45;&gt;BoardControl -->
<g id="edge12" class="edge">
<title>P3&#45;&gt;BoardControl</title>
<path fill="none" stroke="black" d="M304.74,-215.99C308.23,-184.87 311.52,-117.79 283.35,-72 274.9,-58.26 261.4,-47.34 247.88,-39.06"/>
<polygon fill="black" stroke="black" points="249.46,-35.94 239.04,-34 245.98,-42.01 249.46,-35.94"/>
</g>
<!-- P3&#45;&gt;BoardPanel -->
<g id="edge13" class="edge">
<title>P3&#45;&gt;BoardPanel</title>
<path fill="none" stroke="black" d="M284.19,-220.16C270.21,-210.28 250.58,-196.39 234.15,-184.78"/>
<polygon fill="black" stroke="black" points="236.09,-181.87 225.91,-178.95 232.05,-187.58 236.09,-181.87"/>
</g>
</g>
</svg>
