<?xml version="1.0" encoding="UTF-8" standalone="no"?>
<!DOCTYPE svg PUBLIC "-//W3C//DTD SVG 1.1//EN"
 "http://www.w3.org/Graphics/SVG/1.1/DTD/svg11.dtd">
<!-- Generated by graphviz version 2.43.0 (0)
 -->
<!-- Title: Design Pages: 1 -->
<svg width="887pt" height="404pt"
 viewBox="0.00 0.00 886.86 404.00" xmlns="http://www.w3.org/2000/svg" xmlns:xlink="http://www.w3.org/1999/xlink">
<g id="graph0" class="graph" transform="scale(1 1) rotate(0) translate(4 400)">
<title>Design</title>
<polygon fill="white" stroke="transparent" points="-4,4 -4,-400 882.86,-400 882.86,4 -4,4"/>
<!-- Caesar -->
<g id="node1" class="node">
<title>Caesar</title>
<ellipse fill="none" stroke="black" cx="283.86" cy="-162" rx="42.79" ry="18"/>
<text text-anchor="middle" x="283.86" y="-158.3" font-family="Times,serif" font-size="14.00">Caesar</text>
</g>
<!-- Encryptor -->
<g id="node2" class="node">
<title>Encryptor</title>
<ellipse fill="none" stroke="black" cx="397.86" cy="-90" rx="57.69" ry="18"/>
<text text-anchor="middle" x="397.86" y="-86.3" font-family="Times,serif" font-size="14.00">Encryptor</text>
</g>
<!-- Caesar&#45;&gt;Encryptor -->
<g id="edge1" class="edge">
<title>Caesar&#45;&gt;Encryptor</title>
<path fill="none" stroke="black" d="M307.21,-146.67C323.67,-136.56 345.96,-122.87 364.32,-111.6"/>
<polygon fill="black" stroke="black" points="366.28,-114.5 372.97,-106.29 362.62,-108.54 366.28,-114.5"/>
</g>
<!-- EncryptorHelp -->
<g id="node3" class="node">
<title>EncryptorHelp</title>
<ellipse fill="none" stroke="black" cx="204.86" cy="-90" rx="79.09" ry="18"/>
<text text-anchor="middle" x="204.86" y="-86.3" font-family="Times,serif" font-size="14.00">EncryptorHelp</text>
</g>
<!-- Caesar&#45;&gt;EncryptorHelp -->
<g id="edge2" class="edge">
<title>Caesar&#45;&gt;EncryptorHelp</title>
<path fill="none" stroke="black" d="M266.33,-145.46C256.06,-136.37 242.89,-124.7 231.38,-114.49"/>
<polygon fill="black" stroke="black" points="233.53,-111.73 223.73,-107.71 228.89,-116.97 233.53,-111.73"/>
</g>
<!-- IllegalCharException -->
<g id="node4" class="node">
<title>IllegalCharException</title>
<ellipse fill="none" stroke="black" cx="311.86" cy="-18" rx="108.58" ry="18"/>
<text text-anchor="middle" x="311.86" y="-14.3" font-family="Times,serif" font-size="14.00">IllegalCharException</text>
</g>
<!-- Caesar&#45;&gt;IllegalCharException -->
<g id="edge3" class="edge">
<title>Caesar&#45;&gt;IllegalCharException</title>
<path fill="none" stroke="black" d="M287.24,-143.87C292.03,-119.56 300.86,-74.82 306.54,-46.01"/>
<polygon fill="black" stroke="black" points="309.97,-46.68 308.47,-36.19 303.1,-45.32 309.97,-46.68"/>
</g>
<!-- Encryptor&#45;&gt;IllegalCharException -->
<g id="edge7" class="edge">
<title>Encryptor&#45;&gt;IllegalCharException</title>
<path fill="none" stroke="black" d="M377.92,-72.76C366.76,-63.69 352.67,-52.22 340.37,-42.21"/>
<polygon fill="black" stroke="black" points="342.56,-39.48 332.6,-35.88 338.14,-44.91 342.56,-39.48"/>
</g>
<!-- EncryptorHelp&#45;&gt;IllegalCharException -->
<g id="edge8" class="edge">
<title>EncryptorHelp&#45;&gt;IllegalCharException</title>
<path fill="none" stroke="black" d="M229.68,-72.76C244.06,-63.36 262.36,-51.39 278.04,-41.13"/>
<polygon fill="black" stroke="black" points="279.98,-44.04 286.44,-35.63 276.15,-38.18 279.98,-44.04"/>
</g>
<!-- Clear -->
<g id="node5" class="node">
<title>Clear</title>
<ellipse fill="none" stroke="black" cx="64.86" cy="-162" rx="36" ry="18"/>
<text text-anchor="middle" x="64.86" y="-158.3" font-family="Times,serif" font-size="14.00">Clear</text>
</g>
<!-- Clear&#45;&gt;Encryptor -->
<g id="edge4" class="edge">
<title>Clear&#45;&gt;Encryptor</title>
<path fill="none" stroke="black" d="M91.73,-149.95C97.64,-147.78 103.91,-145.66 109.86,-144 151.76,-132.33 266.29,-112.59 337.65,-100.77"/>
<polygon fill="black" stroke="black" points="338.56,-104.17 347.85,-99.09 337.42,-97.27 338.56,-104.17"/>
</g>
<!-- Clear&#45;&gt;EncryptorHelp -->
<g id="edge5" class="edge">
<title>Clear&#45;&gt;EncryptorHelp</title>
<path fill="none" stroke="black" d="M89.25,-148.81C110.02,-138.42 140.28,-123.29 164.63,-111.11"/>
<polygon fill="black" stroke="black" points="166.27,-114.21 173.65,-106.61 163.14,-107.95 166.27,-114.21"/>
</g>
<!-- Clear&#45;&gt;IllegalCharException -->
<g id="edge6" class="edge">
<title>Clear&#45;&gt;IllegalCharException</title>
<path fill="none" stroke="black" d="M68.53,-143.88C73.75,-123.68 85.32,-90.51 107.86,-72 135.53,-49.28 171.85,-36.19 206.17,-28.68"/>
<polygon fill="black" stroke="black" points="207.16,-32.05 216.26,-26.61 205.76,-25.19 207.16,-32.05"/>
</g>
<!-- Hasher -->
<g id="node6" class="node">
<title>Hasher</title>
<ellipse fill="none" stroke="black" cx="618.86" cy="-90" rx="44.39" ry="18"/>
<text text-anchor="middle" x="618.86" y="-86.3" font-family="Times,serif" font-size="14.00">Hasher</text>
</g>
<!-- Hasher&#45;&gt;IllegalCharException -->
<g id="edge9" class="edge">
<title>Hasher&#45;&gt;IllegalCharException</title>
<path fill="none" stroke="black" d="M581.22,-80.42C532,-69.19 444.79,-49.31 382.95,-35.21"/>
<polygon fill="black" stroke="black" points="383.4,-31.72 372.87,-32.91 381.84,-38.55 383.4,-31.72"/>
</g>
<!-- Padcut -->
<g id="node7" class="node">
<title>Padcut</title>
<ellipse fill="none" stroke="black" cx="690.86" cy="-162" rx="42.49" ry="18"/>
<text text-anchor="middle" x="690.86" y="-158.3" font-family="Times,serif" font-size="14.00">Padcut</text>
</g>
<!-- Padcut&#45;&gt;EncryptorHelp -->
<g id="edge10" class="edge">
<title>Padcut&#45;&gt;EncryptorHelp</title>
<path fill="none" stroke="black" d="M653.71,-153.42C637.78,-150.29 618.94,-146.76 601.86,-144 481.92,-124.59 451.29,-124.12 330.86,-108 314.83,-105.85 297.65,-103.54 281.29,-101.34"/>
<polygon fill="black" stroke="black" points="281.61,-97.85 271.23,-99.98 280.67,-104.79 281.61,-97.85"/>
</g>
<!-- Padcut&#45;&gt;IllegalCharException -->
<g id="edge12" class="edge">
<title>Padcut&#45;&gt;IllegalCharException</title>
<path fill="none" stroke="black" d="M692.5,-143.84C693.4,-123.59 691.45,-90.37 671.86,-72 637.39,-39.67 520.21,-27.02 428.8,-22.1"/>
<polygon fill="black" stroke="black" points="428.8,-18.6 418.63,-21.58 428.44,-25.59 428.8,-18.6"/>
</g>
<!-- Padcut&#45;&gt;Hasher -->
<g id="edge11" class="edge">
<title>Padcut&#45;&gt;Hasher</title>
<path fill="none" stroke="black" d="M674.52,-145.12C665.04,-135.9 652.94,-124.13 642.44,-113.92"/>
<polygon fill="black" stroke="black" points="644.75,-111.28 635.14,-106.82 639.87,-116.3 644.75,-111.28"/>
</g>
<!-- ShiftCaesar -->
<g id="node8" class="node">
<title>ShiftCaesar</title>
<ellipse fill="none" stroke="black" cx="526.86" cy="-234" rx="65.79" ry="18"/>
<text text-anchor="middle" x="526.86" y="-230.3" font-family="Times,serif" font-size="14.00">ShiftCaesar</text>
</g>
<!-- ShiftCaesar&#45;&gt;Caesar -->
<g id="edge13" class="edge">
<title>ShiftCaesar&#45;&gt;Caesar</title>
<path fill="none" stroke="black" d="M483.42,-220.49C439.6,-207.86 372.29,-188.47 328.16,-175.76"/>
<polygon fill="black" stroke="black" points="328.87,-172.32 318.3,-172.92 326.94,-179.05 328.87,-172.32"/>
</g>
<!-- ShiftCaesar&#45;&gt;Encryptor -->
<g id="edge14" class="edge">
<title>ShiftCaesar&#45;&gt;Encryptor</title>
<path fill="none" stroke="black" d="M498.59,-217.69C482.95,-208.27 463.89,-195.1 449.86,-180 432.65,-161.46 418.59,-136.26 409.45,-117.41"/>
<polygon fill="black" stroke="black" points="412.55,-115.76 405.13,-108.19 406.21,-118.73 412.55,-115.76"/>
</g>
<!-- ShiftHasher -->
<g id="node9" class="node">
<title>ShiftHasher</title>
<ellipse fill="none" stroke="black" cx="525.86" cy="-162" rx="66.89" ry="18"/>
<text text-anchor="middle" x="525.86" y="-158.3" font-family="Times,serif" font-size="14.00">ShiftHasher</text>
</g>
<!-- ShiftCaesar&#45;&gt;ShiftHasher -->
<g id="edge15" class="edge">
<title>ShiftCaesar&#45;&gt;ShiftHasher</title>
<path fill="none" stroke="black" d="M526.62,-215.7C526.51,-207.98 526.37,-198.71 526.25,-190.11"/>
<polygon fill="black" stroke="black" points="529.75,-190.05 526.11,-180.1 522.75,-190.15 529.75,-190.05"/>
</g>
<!-- ShiftHasher&#45;&gt;Encryptor -->
<g id="edge16" class="edge">
<title>ShiftHasher&#45;&gt;Encryptor</title>
<path fill="none" stroke="black" d="M497.77,-145.64C479.14,-135.45 454.5,-121.97 434.35,-110.95"/>
<polygon fill="black" stroke="black" points="435.9,-107.81 425.45,-106.09 432.54,-113.95 435.9,-107.81"/>
</g>
<!-- ShiftHasher&#45;&gt;IllegalCharException -->
<g id="edge18" class="edge">
<title>ShiftHasher&#45;&gt;IllegalCharException</title>
<path fill="none" stroke="black" d="M518.24,-143.8C508.55,-123.84 490.03,-91.2 464.86,-72 442.67,-55.07 414.67,-43.3 388.7,-35.23"/>
<polygon fill="black" stroke="black" points="389.45,-31.8 378.87,-32.32 387.46,-38.51 389.45,-31.8"/>
</g>
<!-- ShiftHasher&#45;&gt;Hasher -->
<g id="edge17" class="edge">
<title>ShiftHasher&#45;&gt;Hasher</title>
<path fill="none" stroke="black" d="M547.43,-144.76C560.23,-135.13 576.6,-122.81 590.45,-112.39"/>
<polygon fill="black" stroke="black" points="592.8,-115 598.68,-106.19 588.59,-109.41 592.8,-115"/>
</g>
<!-- ShiftVigenere -->
<g id="node10" class="node">
<title>ShiftVigenere</title>
<ellipse fill="none" stroke="black" cx="368.86" cy="-234" rx="74.99" ry="18"/>
<text text-anchor="middle" x="368.86" y="-230.3" font-family="Times,serif" font-size="14.00">ShiftVigenere</text>
</g>
<!-- ShiftVigenere&#45;&gt;Encryptor -->
<g id="edge19" class="edge">
<title>ShiftVigenere&#45;&gt;Encryptor</title>
<path fill="none" stroke="black" d="M372.36,-215.87C377.32,-191.56 386.46,-146.82 392.35,-118.01"/>
<polygon fill="black" stroke="black" points="395.78,-118.69 394.35,-108.19 388.92,-117.29 395.78,-118.69"/>
</g>
<!-- ShiftVigenere&#45;&gt;ShiftHasher -->
<g id="edge20" class="edge">
<title>ShiftVigenere&#45;&gt;ShiftHasher</title>
<path fill="none" stroke="black" d="M402.93,-217.81C426.6,-207.26 458.31,-193.12 483.59,-181.85"/>
<polygon fill="black" stroke="black" points="485.23,-184.95 492.94,-177.68 482.38,-178.56 485.23,-184.95"/>
</g>
<!-- Vigenere -->
<g id="node11" class="node">
<title>Vigenere</title>
<ellipse fill="none" stroke="black" cx="170.86" cy="-162" rx="51.99" ry="18"/>
<text text-anchor="middle" x="170.86" y="-158.3" font-family="Times,serif" font-size="14.00">Vigenere</text>
</g>
<!-- ShiftVigenere&#45;&gt;Vigenere -->
<g id="edge21" class="edge">
<title>ShiftVigenere&#45;&gt;Vigenere</title>
<path fill="none" stroke="black" d="M328.32,-218.67C295.57,-207.09 249.53,-190.81 215.69,-178.85"/>
<polygon fill="black" stroke="black" points="216.65,-175.47 206.05,-175.44 214.31,-182.07 216.65,-175.47"/>
</g>
<!-- Vigenere&#45;&gt;Encryptor -->
<g id="edge39" class="edge">
<title>Vigenere&#45;&gt;Encryptor</title>
<path fill="none" stroke="black" d="M208.35,-149.44C246.59,-137.65 306.13,-119.29 348.25,-106.3"/>
<polygon fill="black" stroke="black" points="349.51,-109.57 358.03,-103.28 347.44,-102.89 349.51,-109.57"/>
</g>
<!-- Vigenere&#45;&gt;EncryptorHelp -->
<g id="edge40" class="edge">
<title>Vigenere&#45;&gt;EncryptorHelp</title>
<path fill="none" stroke="black" d="M179.09,-144.05C182.96,-136.09 187.66,-126.41 191.99,-117.51"/>
<polygon fill="black" stroke="black" points="195.25,-118.8 196.47,-108.28 188.95,-115.74 195.25,-118.8"/>
</g>
<!-- Vigenere&#45;&gt;IllegalCharException -->
<g id="edge41" class="edge">
<title>Vigenere&#45;&gt;IllegalCharException</title>
<path fill="none" stroke="black" d="M149.57,-145.23C127.44,-126.91 98.42,-96.12 116.86,-72 130.39,-54.31 178.44,-41.13 223.46,-32.34"/>
<polygon fill="black" stroke="black" points="224.13,-35.78 233.3,-30.48 222.83,-28.9 224.13,-35.78"/>
</g>
<!-- TestEncryptors -->
<g id="node12" class="node">
<title>TestEncryptors</title>
<ellipse fill="none" stroke="black" cx="170.86" cy="-234" rx="81.79" ry="18"/>
<text text-anchor="middle" x="170.86" y="-230.3" font-family="Times,serif" font-size="14.00">TestEncryptors</text>
</g>
<!-- TestEncryptors&#45;&gt;Caesar -->
<g id="edge22" class="edge">
<title>TestEncryptors&#45;&gt;Caesar</title>
<path fill="none" stroke="black" d="M197.07,-216.76C213.5,-206.58 234.79,-193.4 252.17,-182.63"/>
<polygon fill="black" stroke="black" points="254.2,-185.49 260.86,-177.25 250.51,-179.54 254.2,-185.49"/>
</g>
<!-- TestEncryptors&#45;&gt;Encryptor -->
<g id="edge24" class="edge">
<title>TestEncryptors&#45;&gt;Encryptor</title>
<path fill="none" stroke="black" d="M234.5,-222.67C267.17,-214.99 306.22,-201.91 335.86,-180 357.99,-163.65 375.05,-136.97 385.62,-117.08"/>
<polygon fill="black" stroke="black" points="388.86,-118.44 390.29,-107.94 382.63,-115.26 388.86,-118.44"/>
</g>
<!-- TestEncryptors&#45;&gt;IllegalCharException -->
<g id="edge25" class="edge">
<title>TestEncryptors&#45;&gt;IllegalCharException</title>
<path fill="none" stroke="black" d="M97.97,-225.56C68.73,-218.59 37.78,-205.27 19.86,-180 10.61,-166.95 14.48,-159.07 19.86,-144 33.79,-105.04 43.68,-93.76 78.86,-72 116.83,-48.51 164.06,-35.41 206.04,-28.1"/>
<polygon fill="black" stroke="black" points="206.73,-31.54 216.03,-26.46 205.6,-24.63 206.73,-31.54"/>
</g>
<!-- TestEncryptors&#45;&gt;Clear -->
<g id="edge23" class="edge">
<title>TestEncryptors&#45;&gt;Clear</title>
<path fill="none" stroke="black" d="M146.28,-216.76C130.8,-206.54 110.72,-193.29 94.38,-182.49"/>
<polygon fill="black" stroke="black" points="96.01,-179.38 85.74,-176.79 92.16,-185.22 96.01,-179.38"/>
</g>
<!-- TestEncryptors&#45;&gt;Vigenere -->
<g id="edge26" class="edge">
<title>TestEncryptors&#45;&gt;Vigenere</title>
<path fill="none" stroke="black" d="M170.86,-215.7C170.86,-207.98 170.86,-198.71 170.86,-190.11"/>
<polygon fill="black" stroke="black" points="174.36,-190.1 170.86,-180.1 167.36,-190.1 174.36,-190.1"/>
</g>
<!-- TestHashers -->
<g id="node13" class="node">
<title>TestHashers</title>
<ellipse fill="none" stroke="black" cx="526.86" cy="-306" rx="68.79" ry="18"/>
<text text-anchor="middle" x="526.86" y="-302.3" font-family="Times,serif" font-size="14.00">TestHashers</text>
</g>
<!-- TestHashers&#45;&gt;IllegalCharException -->
<g id="edge28" class="edge">
<title>TestHashers&#45;&gt;IllegalCharException</title>
<path fill="none" stroke="black" d="M459.03,-302.53C350.85,-297.67 144.82,-284.37 79.86,-252 40.19,-232.23 27.39,-221.13 10.86,-180 -7.43,-134.46 -2.87,-104.54 33.86,-72 59.4,-49.38 139.04,-35.7 206.56,-27.92"/>
<polygon fill="black" stroke="black" points="207.31,-31.36 216.86,-26.77 206.53,-24.41 207.31,-31.36"/>
</g>
<!-- TestHashers&#45;&gt;Hasher -->
<g id="edge27" class="edge">
<title>TestHashers&#45;&gt;Hasher</title>
<path fill="none" stroke="black" d="M559.68,-289.99C575.1,-281.18 592.18,-268.5 601.86,-252 626.24,-210.43 625.59,-152.33 622.5,-118.49"/>
<polygon fill="black" stroke="black" points="625.97,-117.98 621.44,-108.4 619.01,-118.71 625.97,-117.98"/>
</g>
<!-- TestHashers&#45;&gt;Padcut -->
<g id="edge29" class="edge">
<title>TestHashers&#45;&gt;Padcut</title>
<path fill="none" stroke="black" d="M567.25,-291.39C589.04,-282.61 615.38,-269.53 634.86,-252 654.37,-234.45 669.62,-208.56 679.25,-189.22"/>
<polygon fill="black" stroke="black" points="682.48,-190.58 683.64,-180.05 676.17,-187.55 682.48,-190.58"/>
</g>
<!-- TestHashers&#45;&gt;ShiftCaesar -->
<g id="edge30" class="edge">
<title>TestHashers&#45;&gt;ShiftCaesar</title>
<path fill="none" stroke="black" d="M526.86,-287.7C526.86,-279.98 526.86,-270.71 526.86,-262.11"/>
<polygon fill="black" stroke="black" points="530.36,-262.1 526.86,-252.1 523.36,-262.1 530.36,-262.1"/>
</g>
<!-- TestHashers&#45;&gt;ShiftVigenere -->
<g id="edge31" class="edge">
<title>TestHashers&#45;&gt;ShiftVigenere</title>
<path fill="none" stroke="black" d="M493.35,-290.15C469.74,-279.69 437.9,-265.59 412.33,-254.26"/>
<polygon fill="black" stroke="black" points="413.43,-250.92 402.87,-250.07 410.59,-257.32 413.43,-250.92"/>
</g>
<!-- UserList -->
<g id="node14" class="node">
<title>UserList</title>
<ellipse fill="none" stroke="black" cx="735.86" cy="-306" rx="50.89" ry="18"/>
<text text-anchor="middle" x="735.86" y="-302.3" font-family="Times,serif" font-size="14.00">UserList</text>
</g>
<!-- UserList&#45;&gt;Hasher -->
<g id="edge32" class="edge">
<title>UserList&#45;&gt;Hasher</title>
<path fill="none" stroke="black" d="M742.51,-287.76C753.43,-256.29 771.23,-188.63 741.86,-144 725.83,-119.63 695.96,-106.41 669.68,-99.28"/>
<polygon fill="black" stroke="black" points="670.36,-95.84 659.82,-96.83 668.68,-102.63 670.36,-95.84"/>
</g>
<!-- UserList&#45;&gt;Padcut -->
<g id="edge33" class="edge">
<title>UserList&#45;&gt;Padcut</title>
<path fill="none" stroke="black" d="M730.43,-287.87C722.73,-263.56 708.55,-218.82 699.42,-190.01"/>
<polygon fill="black" stroke="black" points="702.67,-188.66 696.31,-180.19 695.99,-190.78 702.67,-188.66"/>
</g>
<!-- UserList&#45;&gt;ShiftCaesar -->
<g id="edge34" class="edge">
<title>UserList&#45;&gt;ShiftCaesar</title>
<path fill="none" stroke="black" d="M700.41,-293.13C666.41,-281.74 614.77,-264.44 576.65,-251.68"/>
<polygon fill="black" stroke="black" points="577.37,-248.23 566.78,-248.37 575.15,-254.86 577.37,-248.23"/>
</g>
<!-- UserList&#45;&gt;ShiftVigenere -->
<g id="edge35" class="edge">
<title>UserList&#45;&gt;ShiftVigenere</title>
<path fill="none" stroke="black" d="M691.54,-296.98C635.63,-286.8 536.53,-268.57 451.86,-252 446.04,-250.86 439.98,-249.66 433.92,-248.44"/>
<polygon fill="black" stroke="black" points="434.25,-244.93 423.75,-246.38 432.86,-251.79 434.25,-244.93"/>
</g>
<!-- User -->
<g id="node15" class="node">
<title>User</title>
<ellipse fill="none" stroke="black" cx="817.86" cy="-234" rx="33.29" ry="18"/>
<text text-anchor="middle" x="817.86" y="-230.3" font-family="Times,serif" font-size="14.00">User</text>
</g>
<!-- UserList&#45;&gt;User -->
<g id="edge36" class="edge">
<title>UserList&#45;&gt;User</title>
<path fill="none" stroke="black" d="M754.47,-289.12C765.87,-279.39 780.59,-266.82 792.98,-256.24"/>
<polygon fill="black" stroke="black" points="795.39,-258.78 800.73,-249.63 790.85,-253.46 795.39,-258.78"/>
</g>
<!-- Vault -->
<g id="node16" class="node">
<title>Vault</title>
<ellipse fill="none" stroke="black" cx="816.86" cy="-378" rx="34.39" ry="18"/>
<text text-anchor="middle" x="816.86" y="-374.3" font-family="Times,serif" font-size="14.00">Vault</text>
</g>
<!-- Vault&#45;&gt;IllegalCharException -->
<g id="edge37" class="edge">
<title>Vault&#45;&gt;IllegalCharException</title>
<path fill="none" stroke="black" d="M829.11,-360.95C847.18,-335.64 878.86,-284.23 878.86,-235 878.86,-235 878.86,-235 878.86,-161 878.86,-68.37 590.54,-35.64 425.1,-24.49"/>
<polygon fill="black" stroke="black" points="425.08,-20.98 414.87,-23.81 424.62,-27.96 425.08,-20.98"/>
</g>
<!-- Vault&#45;&gt;UserList -->
<g id="edge38" class="edge">
<title>Vault&#45;&gt;UserList</title>
<path fill="none" stroke="black" d="M799.68,-362.15C788.71,-352.67 774.28,-340.2 761.91,-329.51"/>
<polygon fill="black" stroke="black" points="764,-326.69 754.14,-322.8 759.42,-331.98 764,-326.69"/>
</g>
</g>
</svg>
